<?xml version="1.0" encoding="UTF-8" standalone="no"?>
<svg
   viewBox="-11.5 -10.23174 1000 1000"
   version="1.1"
   id="svg3"
   sodipodi:docname="logo.svg"
   inkscape:version="1.3 (0e150ed6c4, 2023-07-21)"
   xml:space="preserve"
   width="1000"
   height="1000"
   xmlns:inkscape="http://www.inkscape.org/namespaces/inkscape"
   xmlns:sodipodi="http://sodipodi.sourceforge.net/DTD/sodipodi-0.dtd"
   xmlns="http://www.w3.org/2000/svg"
   xmlns:svg="http://www.w3.org/2000/svg"
   xmlns:rdf="http://www.w3.org/1999/02/22-rdf-syntax-ns#"
   xmlns:cc="http://creativecommons.org/ns#"
   xmlns:dc="http://purl.org/dc/elements/1.1/"><title
     id="title15">Project logo</title><defs
     id="defs3" /><sodipodi:namedview
     id="namedview3"
     pagecolor="#ffffff"
     bordercolor="#000000"
     borderopacity="0.25"
     inkscape:showpageshadow="2"
     inkscape:pageopacity="0.0"
     inkscape:pagecheckerboard="true"
     inkscape:deskcolor="#d1d1d1"
     inkscape:zoom="0.44866952"
     inkscape:cx="250.74135"
     inkscape:cy="729.93592"
     inkscape:window-width="1920"
     inkscape:window-height="1027"
     inkscape:window-x="1912"
     inkscape:window-y="-8"
     inkscape:window-maximized="1"
     inkscape:current-layer="svg3"
     showgrid="false"><inkscape:grid
       id="grid15"
       units="px"
       originx="0"
       originy="0"
       spacingx="1"
       spacingy="1"
       empcolor="#0099e5"
       empopacity="0.30196078"
       color="#0099e5"
       opacity="0.14902"
       empspacing="5"
       dotted="false"
       gridanglex="30"
       gridanglez="30"
       visible="false" /></sodipodi:namedview><metadata
     id="metadata3"><rdf:RDF><cc:Work
         rdf:about=""><dc:title>Project logo</dc:title><dc:date>2023-09-10</dc:date><dc:creator><cc:Agent><dc:title>Frigvid</dc:title></cc:Agent></dc:creator><dc:rights><cc:Agent><dc:title>React logo (MIT): https://github.com/facebook/react/blob/main/LICENSE; Chess pieces (CC0): https://svgsilh.com/image/2025120.html</dc:title></cc:Agent></dc:rights><dc:description>React logo (MIT): https://github.com/facebook/react/blob/main/LICENSE&#10;&#10;Chess pieces (CC0): https://svgsilh.com/image/2025120.html</dc:description></cc:Work></rdf:RDF></metadata><style
     id="style1">.st0{fill:#222}.st1{fill:#00d8ff}.st2{fill:none;stroke:#00d8ff;stroke-width:144.7456;stroke-miterlimit:10}</style><g
     id="g15"
     inkscape:label="Project logo"><ellipse
       style="fill:#ffffff;fill-opacity:1;stroke:#ffffff;stroke-width:1.18318;stroke-opacity:1"
       id="path18"
       cx="488.47968"
       cy="508.00409"
       rx="490.50092"
       ry="469.40414" /><path
       class="st2"
       d="m 479.05403,421.93722 c 81.87518,0 157.94531,11.75116 215.29017,31.48425 69.09604,23.78451 111.58566,59.84423 111.58566,92.49754 0,34.02398 -45.02933,72.34123 -119.22492,96.91185 -56.09517,18.58415 -129.92794,28.29954 -207.65091,28.29954 -79.69828,0 -155.14357,-9.11067 -211.88375,-28.50111 -71.77682,-24.5303 -115.01224,-63.3313 -115.01224,-96.71028 0,-32.39125 40.57477,-68.16881 108.7033,-91.91301 57.56659,-20.05559 135.51127,-32.06878 218.19269,-32.06878 z"
       id="path4"
       style="display:inline;fill:none;stroke:#00d8ff;stroke-width:29.1755;stroke-miterlimit:10"
       inkscape:label="Ellipsis middle (below)" /><path
       d="m 3205.5613,5704.5273 v -772.1482 l -59.5597,-233.9843 c -70.1953,-278.6541 -219.0944,-595.5965 -380.7562,-806.1824 -261.6371,-342.4679 -233.9844,-278.654 -246.7471,-570.0708 -4.2543,-144.6449 -17.0171,-270.1456 -25.5256,-282.9083 -10.6357,-10.6357 -23.3984,-65.9411 -31.907,-119.1193 -10.6356,-74.4496 -6.3813,-102.1023 19.1442,-123.3736 55.3054,-46.7968 680.6817,-70.1953 1469.8469,-59.5596 687.0631,10.6356 974.2256,34.0341 1021.0225,80.8309 31.9069,31.907 19.1442,187.1875 -19.1442,229.7301 -27.6527,29.7798 -34.0341,85.0852 -34.0341,272.2726 0,231.8572 -2.1271,238.2386 -68.0681,331.8323 -319.0695,448.8245 -376.5021,544.5453 -472.2229,795.5467 -134.0092,344.5951 -142.5177,427.5532 -155.2805,1276.2781 z"
       id="path9"
       inkscape:label="Queen bottom"
       style="display:inline;stroke-width:2.12713"
       transform="matrix(0.1352665,0,0,-0.1352665,-15.015545,1306.6484)"
       sodipodi:nodetypes="cccccccccscscccc" /><path
       class="st2"
       d="m 479.05403,421.93722 c 81.87518,0 157.94531,11.75116 215.29017,31.48425 69.09604,23.78451 111.58566,59.84423 111.58566,92.49754 0,34.02398 -45.02933,72.34123 -119.22492,96.91185 -56.09517,18.58415 -129.92794,28.29954 -207.65091,28.29954 -79.69828,0 -155.14357,-9.11067 -211.88375,-28.50111 -71.77682,-24.5303 -115.01224,-63.3313 -115.01224,-96.71028 0,-32.39125 40.57477,-68.16881 108.7033,-91.91301 57.56659,-20.05559 135.51127,-32.06878 218.19269,-32.06878 z"
       id="path17"
       style="display:inline;fill:none;stroke:#00d8ff;stroke-width:29.1755;stroke-miterlimit:10"
       inkscape:label="Ellipsis middle (above)" /><path
       class="st2"
       d="m 371.11668,484.30102 c 40.89727,-70.93027 89.09115,-130.95596 134.84611,-170.76478 55.12767,-47.97216 107.59469,-66.7579 135.87408,-50.4514 29.46861,16.99182 40.17163,75.14295 24.38921,151.71702 -11.93258,57.88909 -40.39337,126.68276 -79.2347,194.0252 -39.80882,69.03556 -85.40253,129.84733 -130.53265,169.3135 -57.10298,49.92733 -112.33144,67.98743 -141.23566,51.3181 -28.05767,-16.18556 -38.78086,-69.19681 -25.33656,-140.08677 11.3682,-59.94501 39.9096,-133.4553 81.23017,-205.07087 z"
       id="path6"
       style="display:inline;fill:none;stroke:#00d8ff;stroke-width:29.1755;stroke-miterlimit:10"
       inkscape:label="Ellipsis right" /><path
       class="st2"
       d="M 371.21746,608.96816 C 330.19925,538.09837 302.26252,466.382 290.61214,406.86023 c -14.02883,-71.71635 -4.1119,-126.56183 24.14733,-142.90866 29.44845,-17.05228 85.16065,2.72112 143.61413,54.62377 44.20291,39.24446 89.57489,98.26229 128.517,165.54426 39.92977,68.9751 69.86198,138.83706 81.49221,197.6332 14.73431,74.41732 2.80173,131.27841 -26.08235,147.98807 -28.0375,16.22587 -79.31531,-0.94742 -134.01969,-48.01248 C 462.08237,741.95987 412.6388,680.52327 371.21746,608.96816 Z"
       id="path8"
       style="display:inline;fill:none;stroke:#00d8ff;stroke-width:29.1755;stroke-miterlimit:10"
       inkscape:label="Ellipsis left" /><path
       d="m 468.65443,47.744014 c -12.94782,4.028209 -19.5656,8.919608 -24.16927,17.551491 -6.04231,11.509177 -5.46686,21.579714 1.72638,39.131205 7.19323,17.26376 5.75459,35.67846 -2.58957,35.67846 -8.34416,0 -17.26376,8.05642 -25.32018,23.01835 l -7.76871,14.38647 h -21.00425 c -23.5938,0 -29.92386,3.74049 -29.92386,17.26377 0,6.33004 4.60368,12.94782 19.85334,28.19748 21.29197,21.57971 34.81525,44.88579 36.82936,64.73913 1.15093,8.9196 0.28774,13.23555 -3.16502,16.11285 -5.75459,4.8914 -5.75459,10.07053 -0.28773,14.67419 3.16502,2.58957 4.31594,9.20735 4.31594,22.73063 0,18.99015 0,19.56561 -9.20733,23.59382 -8.63189,3.45276 -9.78282,5.46686 -10.93373,18.12696 -1.43864,13.23555 -2.01411,14.38647 -10.64599,16.6883 -23.01835,6.04233 -15.82511,23.88154 11.50918,28.19749 8.91962,1.43864 17.5515,3.16502 18.70242,4.02821 1.15091,0.57546 2.0141,48.33855 2.0141,105.88444 l 137.53468,-2.58957 -1.43866,-104.15806 10.93373,-1.72638 c 27.33429,-4.31593 40.28212,-13.52328 33.95207,-23.88154 -1.72637,-2.58956 -7.48096,-5.46685 -12.94782,-6.33004 -9.20735,-1.43866 -9.7828,-2.01411 -8.91962,-11.22145 1.72638,-16.11285 -1.43864,-23.01836 -11.7969,-25.60793 -8.91961,-2.30183 -9.20735,-2.87729 -10.07053,-18.7024 -0.57546,-10.646 0.57545,-19.27789 3.74047,-25.03248 4.31595,-8.63188 4.31595,-9.49507 -0.28772,-14.67419 -10.93371,-12.08464 6.33005,-53.22995 34.81527,-82.86609 20.71651,-21.29197 23.30608,-30.21158 12.37237,-40.56984 -4.89142,-4.60368 -10.07054,-5.75459 -25.60793,-5.75459 -21.29199,0 -19.85333,0.86319 -35.10299,-23.01836 -4.02821,-6.04232 -10.07054,-10.93372 -15.82513,-12.6601 -8.63188,-2.30183 -9.20733,-3.45275 -9.20733,-14.96192 0,-7.48097 2.30183,-16.40058 5.75459,-21.86744 11.50917,-19.27787 4.31593,-41.433049 -17.55151,-52.654487 -8.63188,-4.603674 -27.90975,-5.179138 -40.28212,-1.726379 z"
       id="path15"
       inkscape:label="Queen Top"
       style="display:inline;stroke-width:0.287729"
       sodipodi:nodetypes="cccsccssccccsccccccccscccccccccsccsccc" /></g></svg>
