<?xml version="1.0" encoding="UTF-8" standalone="no"?>
<svg
   viewBox="-11.5 -10.23174 1000 1000"
   version="1.1"
   id="svg3"
   sodipodi:docname="logo.svg"
   inkscape:version="1.3 (0e150ed6c4, 2023-07-21)"
   xml:space="preserve"
   width="1000"
   height="1000"
   xmlns:inkscape="http://www.inkscape.org/namespaces/inkscape"
   xmlns:sodipodi="http://sodipodi.sourceforge.net/DTD/sodipodi-0.dtd"
   xmlns="http://www.w3.org/2000/svg"
   xmlns:svg="http://www.w3.org/2000/svg"
   xmlns:rdf="http://www.w3.org/1999/02/22-rdf-syntax-ns#"
   xmlns:cc="http://creativecommons.org/ns#"
   xmlns:dc="http://purl.org/dc/elements/1.1/"><title
     id="title15">Project logo</title><defs
     id="defs3" /><sodipodi:namedview
     id="namedview3"
     pagecolor="#ffffff"
     bordercolor="#000000"
     borderopacity="0.25"
     inkscape:showpageshadow="2"
     inkscape:pageopacity="0.0"
     inkscape:pagecheckerboard="true"
     inkscape:deskcolor="#d1d1d1"
     inkscape:zoom="0.63451452"
     inkscape:cx="526.3867"
     inkscape:cy="607.55111"
     inkscape:window-width="1920"
     inkscape:window-height="1027"
     inkscape:window-x="1912"
     inkscape:window-y="-8"
     inkscape:window-maximized="1"
     inkscape:current-layer="g15"
     showgrid="false"><inkscape:grid
       id="grid15"
       units="px"
       originx="0"
       originy="0"
       spacingx="1"
       spacingy="1"
       empcolor="#0099e5"
       empopacity="0.30196078"
       color="#0099e5"
       opacity="0.14901961"
       empspacing="5"
       dotted="false"
       gridanglex="30"
       gridanglez="30"
       visible="false" /></sodipodi:namedview><g
     id="g14"
     inkscape:label="Reference"
     style="display:none"><g
       id="g1"
       inkscape:label="React logo"
       transform="matrix(8.9383216,0,0,8.9383216,1264.0927,-152.36135)"><circle
         class="st1"
         cx="4.8300323"
         cy="70.646416"
         r="4.4524078"
         id="circle1-4-3"
         style="display:inline;fill:#00d8ff;stroke-width:0.0147138" /><path
         class="st2"
         d="m 4.8300348,61.59446 c 5.9767622,0 11.5297652,0.857817 15.7158522,2.298302 5.043905,1.736233 8.145582,4.368537 8.145582,6.752179 0,2.483698 -3.287072,5.280799 -8.703236,7.074416 -4.094862,1.356615 -9.484541,2.065823 -15.1581982,2.065823 -5.817852,0 -11.325243,-0.665065 -15.4671888,-2.080537 -5.239598,-1.790674 -8.395717,-4.623088 -8.395717,-7.059702 0,-2.364512 2.961896,-4.976219 7.935174,-6.709509 4.2022728,-1.464027 9.8921148,-2.340972 15.9277318,-2.340972 z"
         id="path2-0-4"
         style="display:inline;fill:none;stroke:#00d8ff;stroke-width:2.12977;stroke-miterlimit:10" /><path
         class="st2"
         d="m -3.0492262,66.146922 c 2.985438,-5.177801 6.503517,-9.559584 9.843559,-12.465567 4.0242352,-3.501894 7.8542472,-4.873224 9.9185992,-3.682875 2.151164,1.240377 2.932468,5.48532 1.780375,11.07511 -0.87106,4.225815 -2.948654,9.247647 -5.784011,14.163542 -2.9059832,5.03949 -6.2342542,9.478656 -9.5286832,12.359626 -4.16843,3.644618 -8.200023,4.962978 -10.309987,3.746142 -2.048167,-1.181521 -2.830943,-5.051261 -1.84953,-10.226119 0.829861,-4.375894 2.91334,-9.742032 5.929678,-14.969859 z"
         id="path3-8-5"
         style="display:inline;fill:none;stroke:#00d8ff;stroke-width:2.12977;stroke-miterlimit:10" /><path
         class="st2"
         d="m -3.0418692,75.247432 c -2.994267,-5.173386 -5.033605,-10.408571 -5.884065,-14.753569 -1.024083,-5.235183 -0.300162,-9.238819 1.762718,-10.432113 2.149692,-1.24479 6.216597,0.198638 10.483611,3.987452 3.226745,2.864785 6.53883,7.172996 9.3815442,12.084477 2.914812,5.035076 5.099817,10.134892 5.948806,14.42692 1.075582,5.43235 0.204522,9.583123 -1.903971,10.802902 -2.046695,1.184464 -5.789896,-0.06916 -9.7832322,-3.504837 -3.372412,-2.903041 -6.981717,-7.387819 -10.005411,-12.611232 z"
         id="path4-9"
         style="display:inline;fill:none;stroke:#00d8ff;stroke-width:2.12977;stroke-miterlimit:10" /></g><g
       transform="matrix(0.11881197,0,0,-0.11881197,-3.4155088,1600.7979)"
       fill="#000000"
       stroke="none"
       id="g8"
       inkscape:label="Chess pieces"><path
         d="m 7694.2945,5135.1147 c -45,-14 -68,-31 -84,-61 -21,-40 -19,-75 6,-136 25,-60 20,-124 -9,-124 -29,0 -60,-28 -88,-80 l -27,-50 h -73 c -82,0 -104,-13 -104,-60 0,-22 16,-45 69,-98 74,-75 121,-156 128,-225 4,-31 1,-46 -11,-56 -20,-17 -20,-35 -1,-51 11,-9 15,-32 15,-79 0,-66 0,-68 -32,-82 -30,-12 -34,-19 -38,-63 -5,-46 -7,-50 -37,-58 -80,-21 -55,-83 40,-98 31,-5 61,-11 65,-14 4,-2 7,-168 7,-368 v -363 l -28,-110 c -33,-131 -103,-280 -179,-379 -123,-161 -110,-131 -116,-268 -2,-68 -8,-127 -12,-133 -5,-5 -11,-31 -15,-56 -5,-35 -3,-48 9,-58 26,-22 320,-33 691,-28 323,5 458,16 480,38 15,15 9,88 -9,108 -13,14 -16,40 -16,128 0,109 -1,112 -32,156 -150,211 -177,256 -222,374 -63,162 -67,201 -73,600 l -5,362 38,6 c 95,15 140,47 118,83 -6,9 -26,19 -45,22 -32,5 -34,7 -31,39 6,56 -5,80 -41,89 -31,8 -32,10 -35,65 -2,37 2,67 13,87 15,30 15,33 -1,51 -38,42 22,185 121,288 72,74 81,105 43,141 -17,16 -35,20 -89,20 -74,0 -69,-3 -122,80 -14,21 -35,38 -55,44 -30,8 -32,12 -32,52 0,26 8,57 20,76 40,67 15,144 -61,183 -30,16 -97,18 -140,6 z"
         id="path2"
         inkscape:label="Queen" /><path
         d="m 8987.1917,4952.0511 c -20.106,-4.3749 -37.0472,-18.4305 -46.3556,-38.4434 -1.8616,-4.0027 -2.0478,-5.8643 -2.0478,-21.5954 0,-19.9198 0.6514,-22.8055 7.819,-33.6962 8.2844,-12.5662 17.5928,-20.1991 32.3,-26.5288 6.3297,-2.6994 8.3774,-4.0025 8.5636,-5.585 0.372,-2.3271 -6.9812,-45.3316 -30.5313,-180.3957 -30.7176,-175.3692 -56.2224,-319.2761 -57.4325,-322.9996 -0.372,-1.3031 -1.21,-0.093 -3.258,5.1198 -2.6994,7.1673 -23.7362,66.5546 -32.393,91.6872 -2.6063,7.7259 -6.4227,18.7096 -8.4705,24.4809 -3.5372,10.0531 -7.0744,20.3851 -14.7072,42.353 -2.0479,5.6781 -5.3058,15.2655 -7.3536,21.13 -4.6542,13.1247 -16.9412,48.5894 -28.7628,82.8441 -4.8403,14.0555 -10.7977,31.4622 -13.311,38.6297 -2.5132,7.1673 -8.5636,24.667 -13.4039,38.9088 -4.9334,14.1487 -12.9386,37.4195 -17.872,51.6613 -4.8404,14.1487 -10.9839,31.8345 -13.4972,39.2812 -2.6063,7.4467 -5.3057,15.1726 -6.0504,17.1274 -0.7448,1.9547 -1.0239,3.9094 -0.6514,4.2818 0.372,0.372 4.0957,2.8855 8.1913,5.585 14.428,9.5876 26.4358,23.7363 29.8799,35.0924 2.0478,6.7021 1.8616,33.324 -0.186,39.6536 -2.9787,8.8429 -10.7977,20.1991 -19.3614,27.6457 -8.8429,7.8191 -23.5501,13.6833 -36.3956,14.6142 -19.7337,1.3963 -41.4221,-8.4706 -53.3368,-24.2948 -9.6806,-12.7525 -12.2869,-20.7576 -12.2869,-37.2334 0,-17.4066 2.4201,-25.1325 11.4491,-37.4195 8.0052,-10.8908 19.4545,-18.896 33.6962,-23.6432 4.7474,-1.5824 9.4015,-3.7234 10.2392,-4.6542 1.5824,-1.7686 1.5824,-3.7233 -0.372,-40.6774 -2.0478,-38.8158 -15.1726,-275.9925 -18.7098,-337.7067 -1.024,-17.8722 -2.6994,-48.0311 -3.8165,-67.02 -1.0238,-18.896 -2.2339,-35.1858 -2.5132,-36.1163 -0.4654,-1.2102 -12.9386,23.55 -42.0737,83.3095 -123.9871,254.7693 -146.141,301.5904 -146.141,308.7577 0,1.2101 1.3963,2.7926 4.0027,4.3749 7.2604,4.6542 15.2656,13.8695 19.7336,23.0847 9.4945,19.1752 9.1222,37.9781 -1.2101,57.6187 -4.468,8.5636 -9.9599,14.521 -19.3613,20.7576 -13.0317,8.6567 -14.8003,9.1222 -34.8133,9.2152 h -17.2204 l -7.9121,-3.8164 c -9.2152,-4.468 -17.9651,-10.7977 -22.5262,-16.3826 -12.1008,-14.8003 -17.3134,-36.4888 -13.0316,-53.6162 2.7924,-10.7976 6.9812,-18.8028 13.8694,-26.2494 10.9839,-11.9147 24.4809,-18.3375 44.4939,-21.2231 l 11.0769,-1.5824 26.2495,-209.903 c 14.428,-115.4236 26.808,-213.9989 27.3666,-218.9322 l 1.1169,-9.0291 22.4332,-27.2737 c 56.8739,-69.2539 69.8125,-86.0089 75.7699,-98.482 9.0291,-18.8959 37.1403,-83.5891 42.5391,-97.924 l 2.3271,-6.0503 -5.4919,-13.404 c -2.9787,-7.3537 -11.077,-26.7151 -18.0582,-43.0046 -13.404,-31.3691 -22.8985,-55.3845 -22.8985,-57.8049 0,-5.2126 43.2837,-26.3426 75.863,-36.9539 29.6005,-9.6806 66.4615,-16.8482 107.9767,-20.9439 30.066,-2.9787 336.2173,-2.5132 381.6421,0.5589 50.7305,3.4438 100.0647,16.0102 149.3989,37.8849 20.106,8.8429 31.6484,16.0101 31.6484,19.4542 0,2.4204 -9.4945,26.3427 -22.8986,57.805 -6.9813,16.2894 -15.0795,35.6509 -18.0581,43.0046 l -5.4919,13.4039 2.327,6.0503 c 5.3989,14.335 33.51,79.0281 42.5391,97.924 5.9574,12.4732 18.8959,29.2281 75.77,98.4821 l 22.433,27.2737 1.1171,9.029 c 0.558,4.9334 12.9386,103.5086 27.3665,218.9323 l 26.2495,209.903 11.077,1.5824 c 6.1434,0.9308 14.3348,2.6994 18.1512,4.0957 26.3426,9.1222 43.3769,33.4169 41.6083,59.4803 -1.024,13.8694 -6.2366,27.4596 -14.4279,37.5126 -4.5611,5.585 -13.3109,11.9147 -22.5262,16.3826 l -7.9122,3.8165 h -17.2203 c -15.3588,-0.093 -17.779,-0.2794 -22.0608,-2.0478 -7.1675,-2.8856 -19.9199,-11.6354 -24.7602,-16.9412 -12.0077,-13.404 -17.965,-35.5579 -14.2418,-53.1506 2.141,-10.3323 8.6568,-22.7124 15.638,-29.9729 3.258,-3.351 7.6329,-7.1674 9.8669,-8.5637 2.5133,-1.5824 3.9095,-3.1649 3.9095,-4.3749 0,-7.1674 -22.1538,-53.9884 -146.141,-308.7577 -29.1351,-59.7596 -41.6083,-84.5198 -42.0737,-83.3096 -0.2794,0.9306 -1.4893,17.2204 -2.5133,36.1164 -1.117,18.9889 -2.7925,49.1478 -3.8164,67.02 -3.5371,61.7141 -16.6619,298.8908 -18.7097,337.7066 -1.9548,36.9541 -1.9548,38.9089 -0.372,40.6775 0.8374,0.9308 5.4919,3.0717 10.2392,4.6541 14.2417,4.7473 25.691,12.7525 33.6963,23.6433 9.029,12.287 11.4492,20.0129 11.4492,37.4194 0,12.3802 -1.3032,19.1752 -5.2127,26.2496 -7.4467,13.6833 -16.6619,22.7123 -29.5074,29.042 -29.6937,14.4279 -64.7861,3.2579 -82.0065,-26.0634 -5.4919,-9.3083 -6.2367,-13.0316 -6.2367,-29.8797 0,-17.7789 0.7449,-21.0369 6.8882,-30.9037 5.1196,-8.1913 14.3349,-17.2205 24.3879,-23.9224 4.0956,-2.6995 7.819,-5.2127 8.1914,-5.5851 0.372,-0.372 0.093,-2.3271 -0.6515,-4.2818 -0.7449,-1.9547 -3.4441,-9.6806 -6.0503,-17.1274 -2.5133,-7.4466 -8.6568,-25.1325 -13.4972,-39.2811 -4.9334,-14.2418 -12.9385,-37.5127 -17.872,-51.6614 -4.8403,-14.2417 -10.8908,-31.7414 -13.404,-38.9088 -2.5133,-7.1674 -8.4706,-24.5742 -13.3109,-38.6297 -11.6355,-33.6962 -24.1086,-69.6265 -28.6697,-82.5651 -1.9548,-5.7709 -5.3058,-15.3586 -7.3537,-21.2228 -2.0478,-5.8642 -5.3988,-15.545 -7.4466,-21.4092 -2.0479,-5.8643 -5.3989,-15.4519 -7.3536,-21.13 -2.0479,-5.7713 -5.8643,-16.7549 -8.4706,-24.4808 -8.6567,-25.1327 -29.6936,-84.52 -32.393,-91.6873 -2.0478,-5.2127 -2.8856,-6.4228 -3.2579,-5.1197 -1.2102,3.7234 -26.715,147.6304 -57.4325,322.9996 -23.5501,135.0641 -30.9037,178.0686 -30.5314,180.3957 0.186,1.5824 2.2341,2.8856 8.5637,5.5849 14.7071,6.3297 24.0155,13.9626 32.3,26.5289 7.1673,10.8907 7.819,13.7763 7.819,33.6961 0,19.0821 -0.186,19.9199 -7.4468,31.2761 -14.4279,22.5262 -41.2359,34.2547 -66.0892,28.7628 z"
         id="path1-8"
         style="fill:#000000;stroke:none;stroke-width:0.0930832"
         inkscape:label="Queen (alternative, head)" /><path
         d="m 6392.4712,5137.829 c -3,-3 -3,-28 0,-55 l 5,-50 h -55 -55 l -7,-37 c -10,-61 -7,-193 5,-214 9,-17 17,-19 53,-14 53,8 59,0 51,-59 l -7,-44 -75,-4 c -86,-4 -103,-17 -103,-79 0,-21 -4,-49 -10,-63 -8,-22 -16,-26 -48,-26 -45,0 -62,-14 -62,-53 0,-22 15,-43 64,-92 103,-101 158,-232 121,-288 -15,-24 -15,-28 -1,-49 17,-23 22,-123 8,-144 -4,-6 -20,-17 -37,-25 -26,-12 -31,-21 -35,-64 -5,-47 -7,-51 -40,-61 -39,-13 -51,-43 -25,-64 9,-8 44,-19 78,-25 l 62,-11 3,-295 c 3,-320 -5,-424 -44,-572 -34,-127 -117,-294 -199,-401 -37,-49 -72,-106 -76,-125 -5,-20 -9,-79 -9,-131 0,-67 -5,-101 -15,-114 -8,-11 -15,-37 -15,-58 0,-35 3,-38 38,-47 150,-40 1004,-40 1109,0 19,7 23,16 23,53 0,26 -6,48 -15,56 -12,10 -15,36 -15,115 0,56 -3,116 -6,132 -3,16 -37,69 -75,117 -113,144 -157,233 -207,420 l -27,101 v 375 375 l 50,6 c 71,9 93,17 100,38 9,30 -5,50 -38,53 -31,3 -32,5 -35,56 -3,51 -4,53 -43,68 -38,16 -39,17 -39,68 0,32 8,67 20,90 19,38 19,39 -2,55 -19,16 -20,21 -9,69 17,80 47,130 127,213 46,47 74,84 74,97 0,31 -35,62 -68,62 -40,0 -52,17 -52,72 0,71 -21,88 -110,88 -65,0 -70,2 -76,24 -3,13 -4,38 -2,57 3,34 3,34 53,34 h 50 l 3,133 3,132 h -56 -55 v 55 55 h -123 c -68,0 -126,-2 -129,-5 z"
         id="path1"
         inkscape:label="King" /><path
         d="m 5290.178,5126.829 c -11,-14 -10,-19 10,-35 13,-11 29,-19 37,-19 39,0 4,-42 -138,-163 -77,-66 -103,-103 -118,-170 -15,-70 2,-125 61,-192 l 48,-56 -16,-34 c -15,-32 -15,-36 0,-53 20,-22 34,-131 20,-156 -5,-9 -25,-24 -44,-34 -31,-15 -34,-21 -34,-61 0,-41 -2,-45 -35,-56 -26,-9 -36,-18 -38,-37 -4,-33 18,-50 86,-63 l 57,-12 3,-181 c 3,-217 -12,-332 -63,-489 -36,-113 -107,-241 -183,-331 -69,-82 -72,-89 -72,-192 0,-78 -4,-100 -20,-125 -20,-30 -26,-80 -12,-102 11,-17 110,-30 332,-44 276,-17 766,2 821,32 24,12 26,86 4,115 -10,13 -14,45 -15,107 0,104 -9,129 -82,220 -66,82 -137,215 -172,322 -45,136 -56,229 -56,456 0,236 -10,209 85,224 60,10 77,22 73,53 -2,21 -11,30 -38,38 -33,11 -35,14 -40,65 -5,50 -7,54 -38,63 -22,6 -34,17 -38,33 -10,40 2,122 21,143 16,18 17,24 5,60 l -13,40 45,48 c 54,57 73,107 65,173 -9,76 -39,120 -151,224 -57,53 -107,103 -110,111 -4,9 7,19 29,28 37,16 48,49 19,60 -9,3 -75,6 -149,6 -110,0 -135,-3 -146,-16 z"
         id="path5"
         inkscape:label="Bishop" /><path
         d="m 481.18037,991.22572 c -0.71287,0.8317 -2.85149,6.0594 -4.75248,11.52478 -1.90099,5.4653 -3.80198,10.9308 -4.27723,12.1189 -0.47525,1.1881 -13.78219,11.5248 -29.58418,23.0495 -36.83171,26.8515 -34.33666,24.4753 -33.50497,31.8416 0.95049,8.7921 4.87129,22.0991 6.77228,23.1684 2.25743,1.3069 25.66338,3.5643 36.35646,3.5643 h 8.67328 v 5.703 c 0,3.2079 -4.39605,23.2871 -10.09902,45.8614 -5.58416,22.099 -10.09902,41.4654 -10.09902,43.01 0,3.4455 2.49505,4.5148 12.47526,5.7029 13.30694,1.5446 13.30694,1.6634 7.24753,16.0396 -5.9406,14.0199 -11.52476,23.406 -19.72279,33.1486 -3.92079,4.7525 -7.72278,9.9802 -8.31684,11.6436 -0.71287,1.6633 -1.18812,8.3168 -1.18812,14.8515 0,8.4356 -0.59406,12.9505 -1.90099,15.4455 -0.95049,2.0198 -1.66337,5.703 -1.42574,8.4357 0.35643,4.396 0.83168,5.1089 3.92079,5.9406 11.64358,3.0891 67.00995,4.2772 103.00998,2.1386 20.91091,-1.1881 30.53468,-2.7327 32.07923,-5.1089 1.42575,-2.2575 1.06931,-7.8416 -0.71287,-11.8812 -0.95049,-2.1387 -1.90099,-9.3862 -2.25743,-16.3961 -0.59406,-13.901 -1.54455,-16.5149 -8.79208,-24.8317 -15.32675,-17.3465 -30.29705,-47.5248 -23.7624,-47.5248 3.08912,0 22.93071,-2.495 24.95052,-3.0891 4.15842,-1.3069 4.9901,-5.4653 5.9406,-29.5842 1.42574,-34.3366 1.30693,-40.7525 -0.9505,-48.7129 -1.18812,-3.9208 -2.49505,-12.2376 -2.9703,-18.4158 -0.95049,-12 -2.25743,-16.6337 -8.19802,-28.2773 -2.01981,-4.0396 -4.39605,-10.4554 -5.34654,-14.3762 -1.66337,-7.1287 -10.21783,-25.0694 -18.29705,-38.3763 -2.49505,-4.1584 -6.17822,-11.0496 -8.19802,-15.4457 -2.01981,-4.27722 -4.63367,-8.43558 -5.9406,-9.02968 -6.41585,-3.3267 -28.87131,-4.9901 -31.12874,-2.1386 z"
         id="path3"
         inkscape:label="Knight"
         style="display:inline;stroke-width:0.118812"
         transform="matrix(8.4166604,0,0,-8.4166604,28.747178,13473.372)" /><path
         d="m 2880.7094,5137.2042 c -25,-3 -52,-11 -61,-19 -12,-11 -22,-12 -43,-4 -15,5 -63,10 -107,10 h -79 v -84 c 0,-47 5,-88 10,-91 6,-4 10,-57 10,-126 0,-113 1,-121 24,-144 13,-13 41,-27 62,-30 22,-4 49,-10 62,-14 l 23,-6 -1,-272 c -1,-269 -6,-335 -37,-443 -37,-129 -130,-307 -222,-424 l -46.0001,-59 -5,-121 c -3,-69 -10,-130 -18,-143 -15,-27 -16,-89 -1,-98 70.0001,-44 917.0001,-47 1126.0001,-4 52,10 53,11 53,47 -1,20 -9,55 -20,77 -15,31 -19,62 -20,140 0,112 -5,124 -93,231 -62,78 -152,257 -184,369 -23,83 -26,114 -34,389 -6,201 -5,303 1,312 6,6 35,15 65,19 30,3 65,15 77,25 24,19 23,6 44,356 l 5,91 -32,7 c -17,3 -71,6 -119,6 -66,0 -91,-4 -100,-15 -8,-10 -31,-15 -67,-15 -46,0 -56,3 -60,20 -5,18 -13,20 -87,18 -44,-1 -101,-3 -126,-5 z"
         id="path7"
         inkscape:label="Rook" /></g></g><metadata
     id="metadata3"><rdf:RDF><cc:Work
         rdf:about=""><dc:title>Project logo</dc:title><dc:date>2023-09-10</dc:date><dc:creator><cc:Agent><dc:title>Frigvid</dc:title></cc:Agent></dc:creator><dc:rights><cc:Agent><dc:title>React logo (MIT): https://github.com/facebook/react/blob/main/LICENSE; Chess pieces (CC0): https://svgsilh.com/image/2025120.html</dc:title></cc:Agent></dc:rights><dc:description>React logo (MIT): https://github.com/facebook/react/blob/main/LICENSE&#10;&#10;Chess pieces (CC0): https://svgsilh.com/image/2025120.html</dc:description></cc:Work></rdf:RDF></metadata><style
     id="style1">.st0{fill:#222}.st1{fill:#00d8ff}.st2{fill:none;stroke:#00d8ff;stroke-width:144.7456;stroke-miterlimit:10}</style><g
     id="g15"
     inkscape:label="Project logo"><ellipse
       style="fill:#ffffff;fill-opacity:1;stroke:#ffffff;stroke-width:1.18318;stroke-opacity:1"
       id="path18"
       cx="488.47968"
       cy="508.00409"
       rx="490.50092"
       ry="469.40414" /><path
       class="st2"
       d="m 479.05403,421.93722 c 81.87518,0 157.94531,11.75116 215.29017,31.48425 69.09604,23.78451 111.58566,59.84423 111.58566,92.49754 0,34.02398 -45.02933,72.34123 -119.22492,96.91185 -56.09517,18.58415 -129.92794,28.29954 -207.65091,28.29954 -79.69828,0 -155.14357,-9.11067 -211.88375,-28.50111 -71.77682,-24.5303 -115.01224,-63.3313 -115.01224,-96.71028 0,-32.39125 40.57477,-68.16881 108.7033,-91.91301 57.56659,-20.05559 135.51127,-32.06878 218.19269,-32.06878 z"
       id="path4"
       style="display:inline;fill:none;stroke:#00d8ff;stroke-width:29.1755;stroke-miterlimit:10"
       inkscape:label="Ellipsis middle (below)" /><path
       d="m 3205.5613,5704.5273 v -772.1482 l -59.5597,-233.9843 c -70.1953,-278.6541 -219.0944,-595.5965 -380.7562,-806.1824 -261.6371,-342.4679 -233.9844,-278.654 -246.7471,-570.0708 -4.2543,-144.6449 -17.0171,-270.1456 -25.5256,-282.9083 -10.6357,-10.6357 -23.3984,-65.9411 -31.907,-119.1193 -10.6356,-74.4496 -6.3813,-102.1023 19.1442,-123.3736 55.3054,-46.7968 680.6817,-70.1953 1469.8469,-59.5596 687.0631,10.6356 974.2256,34.0341 1021.0225,80.8309 31.9069,31.907 19.1442,187.1875 -19.1442,229.7301 -27.6527,29.7798 -34.0341,85.0852 -34.0341,272.2726 0,231.8572 -2.1271,238.2386 -68.0681,331.8323 -319.0695,448.8245 -376.5021,544.5453 -472.2229,795.5467 -134.0092,344.5951 -142.5177,427.5532 -155.2805,1276.2781 z"
       id="path9"
       inkscape:label="Queen bottom"
       style="display:inline;stroke-width:2.12713"
       transform="matrix(0.1352665,0,0,-0.1352665,-15.015545,1306.6484)"
       sodipodi:nodetypes="cccccccccscscccc" /><path
       class="st2"
       d="m 479.05403,421.93722 c 81.87518,0 157.94531,11.75116 215.29017,31.48425 69.09604,23.78451 111.58566,59.84423 111.58566,92.49754 0,34.02398 -45.02933,72.34123 -119.22492,96.91185 -56.09517,18.58415 -129.92794,28.29954 -207.65091,28.29954 -79.69828,0 -155.14357,-9.11067 -211.88375,-28.50111 -71.77682,-24.5303 -115.01224,-63.3313 -115.01224,-96.71028 0,-32.39125 40.57477,-68.16881 108.7033,-91.91301 57.56659,-20.05559 135.51127,-32.06878 218.19269,-32.06878 z"
       id="path17"
       style="display:inline;fill:none;stroke:#00d8ff;stroke-width:29.1755;stroke-miterlimit:10"
       inkscape:label="Ellipsis middle (above)" /><path
       class="st2"
       d="m 371.11668,484.30102 c 40.89727,-70.93027 89.09115,-130.95596 134.84611,-170.76478 55.12767,-47.97216 107.59469,-66.7579 135.87408,-50.4514 29.46861,16.99182 40.17163,75.14295 24.38921,151.71702 -11.93258,57.88909 -40.39337,126.68276 -79.2347,194.0252 -39.80882,69.03556 -85.40253,129.84733 -130.53265,169.3135 -57.10298,49.92733 -112.33144,67.98743 -141.23566,51.3181 -28.05767,-16.18556 -38.78086,-69.19681 -25.33656,-140.08677 11.3682,-59.94501 39.9096,-133.4553 81.23017,-205.07087 z"
       id="path6"
       style="display:inline;fill:none;stroke:#00d8ff;stroke-width:29.1755;stroke-miterlimit:10"
       inkscape:label="Ellipsis right" /><path
       class="st2"
       d="M 371.21746,608.96816 C 330.19925,538.09837 302.26252,466.382 290.61214,406.86023 c -14.02883,-71.71635 -4.1119,-126.56183 24.14733,-142.90866 29.44845,-17.05228 85.16065,2.72112 143.61413,54.62377 44.20291,39.24446 89.57489,98.26229 128.517,165.54426 39.92977,68.9751 69.86198,138.83706 81.49221,197.6332 14.73431,74.41732 2.80173,131.27841 -26.08235,147.98807 -28.0375,16.22587 -79.31531,-0.94742 -134.01969,-48.01248 C 462.08237,741.95987 412.6388,680.52327 371.21746,608.96816 Z"
       id="path8"
       style="display:inline;fill:none;stroke:#00d8ff;stroke-width:29.1755;stroke-miterlimit:10"
       inkscape:label="Ellipsis left" /><path
       d="m 468.65443,45.744014 c -12.94782,4.028209 -19.5656,8.919608 -24.16927,17.551491 -6.04231,11.509177 -5.46686,21.579714 1.72638,39.131205 7.19323,17.26376 5.75459,35.67846 -2.58957,35.67846 -8.34416,0 -17.26376,8.05642 -25.32018,23.01835 l -7.76871,14.38647 h -21.00425 c -23.5938,0 -29.92386,3.74049 -29.92386,17.26377 0,6.33004 4.60368,12.94782 19.85334,28.19748 21.29197,21.57971 34.81525,44.88579 36.82936,64.73913 1.15093,8.9196 0.28774,13.23555 -3.16502,16.11285 -5.75459,4.8914 -5.75459,10.07053 -0.28773,14.67419 3.16502,2.58957 4.31594,9.20735 4.31594,22.73063 0,18.99015 0,19.56561 -9.20733,23.59382 -8.63189,3.45276 -9.78282,5.46686 -10.93373,18.12696 -1.43864,13.23555 -2.01411,14.38647 -10.64599,16.6883 -23.01835,6.04233 -15.82511,23.88154 11.50918,28.19749 8.91962,1.43864 17.5515,3.16502 18.70242,4.02821 1.15091,0.57546 2.0141,48.33855 2.0141,105.88444 l 137.53468,-2.58957 -1.43866,-104.15806 10.93373,-1.72638 c 27.33429,-4.31593 40.28212,-13.52328 33.95207,-23.88154 -1.72637,-2.58956 -7.48096,-5.46685 -12.94782,-6.33004 -9.20735,-1.43866 -9.7828,-2.01411 -8.91962,-11.22145 1.72638,-16.11285 -1.43864,-23.01836 -11.7969,-25.60793 -8.91961,-2.30183 -9.20735,-2.87729 -10.07053,-18.7024 -0.57546,-10.646 0.57545,-19.27789 3.74047,-25.03248 4.31595,-8.63188 4.31595,-9.49507 -0.28772,-14.67419 -10.93371,-12.08464 6.33005,-53.22995 34.81527,-82.86609 20.71651,-21.29197 23.30608,-30.21158 12.37237,-40.56984 -4.89142,-4.60368 -10.07054,-5.75459 -25.60793,-5.75459 -21.29199,0 -19.85333,0.86319 -35.10299,-23.01836 -4.02821,-6.04232 -10.07054,-10.93372 -15.82513,-12.6601 -8.63188,-2.30183 -9.20733,-3.45275 -9.20733,-14.96192 0,-7.48097 2.30183,-16.40058 5.75459,-21.86744 11.50917,-19.27787 4.31593,-41.433049 -17.55151,-52.654487 -8.63188,-4.603674 -27.90975,-5.179138 -40.28212,-1.726379 z"
       id="path15"
       inkscape:label="Queen Top"
       style="display:inline;stroke-width:0.287729"
       sodipodi:nodetypes="cccsccssccccsccccccccscccccccccsccsccc" /><path
       d="m 3575.6819,9327.0299 c -95.7208,-29.7798 -144.6448,-65.941 -178.6789,-129.7549 -44.6697,-85.0852 -40.4155,-159.5348 12.7628,-289.2897 53.1782,-127.6278 42.5426,-263.7642 -19.1442,-263.7642 -61.6868,0 -127.6278,-59.5596 -187.1874,-170.1704 l -57.4326,-106.3565 h -155.2805 c -174.4246,0 -221.2215,-27.6527 -221.2215,-127.6278 0,-46.7968 34.0341,-95.7208 146.772,-208.4587 157.4076,-159.5348 257.3827,-331.8323 272.2726,-478.6043 8.5086,-65.941 2.1272,-97.848 -23.3984,-119.1193 -42.5426,-36.1612 -42.5426,-74.4496 -2.1271,-108.4836 23.3984,-19.1442 31.9069,-68.0682 31.9069,-168.0433 0,-140.3906 0,-144.6449 -68.0681,-174.4247 -63.8139,-25.5256 -72.3225,-40.4155 -80.831,-134.0092 -10.6356,-97.848 -14.8899,-106.3565 -78.7038,-123.3735 -170.1704,-44.6698 -116.9921,-176.5518 85.0852,-208.4588 65.9411,-10.6356 129.755,-23.3984 138.2635,-29.7798 8.5085,-4.2543 14.8899,-357.3579 14.8899,-782.7839 v -772.1482 l -59.5597,-233.9843 c -70.1953,-278.6541 -219.0944,-595.5965 -380.7562,-806.1824 -261.6371,-342.4679 -233.9844,-278.654 -246.7471,-570.0708 -4.2543,-144.6449 -17.0171,-270.1456 -25.5256,-282.9083 -10.6357,-10.6357 -23.3984,-65.9411 -31.907,-119.1193 -10.6356,-74.4496 -6.3813,-102.1023 19.1442,-123.3736 55.3054,-46.7968 680.6817,-70.1953 1469.8469,-59.5596 687.0631,10.6356 974.2256,34.0341 1021.0225,80.8309 31.9069,31.907 19.1442,187.1875 -19.1442,229.7301 -27.6527,29.7798 -34.0341,85.0852 -34.0341,272.2726 0,231.8572 -2.1271,238.2386 -68.0681,331.8323 -319.0695,448.8245 -376.5021,544.5453 -472.2229,795.5467 -134.0092,344.5951 -142.5177,427.5532 -155.2805,1276.2781 l -10.6357,770.0211 80.831,12.7628 c 202.0773,31.9069 297.7982,99.9751 251.0013,176.5518 -12.7627,19.1441 -55.3053,40.4154 -95.7208,46.7968 -68.0682,10.6357 -72.3224,14.8899 -65.9411,82.9581 12.7628,119.1193 -10.6356,170.1704 -87.2123,189.3146 -65.941,17.017 -68.0682,21.2713 -74.4495,138.2634 -4.2543,78.7039 4.2542,142.5178 27.6526,185.0604 31.907,63.8139 31.907,70.1953 -2.1271,108.4836 -80.8309,89.3395 46.7969,393.5191 257.3828,612.6135 153.1533,157.4076 172.2975,223.3486 91.4666,299.9253 -36.1613,34.0341 -74.4496,42.5426 -189.3146,42.5426 -157.4077,0 -146.772,-6.3814 -259.5099,170.1704 -29.7798,44.6698 -74.4496,80.831 -116.9922,93.5938 -63.8139,17.017 -68.0681,25.5255 -68.0681,110.6107 0,55.3054 17.017,121.2464 42.5426,161.6619 85.0852,142.5177 31.9069,306.3068 -129.755,389.2648 -63.8139,34.0341 -206.3316,38.2884 -297.7982,12.7628 z"
       id="path16"
       inkscape:label="Queen"
       style="display:none;stroke-width:2.12713"
       transform="matrix(0.1352665,0,0,-0.1352665,-15.015545,1306.6484)" /></g><path
     d="m -155.24404,521.25553 c 2.62495,0.57062 4.8366,2.40604 6.05182,5.01878 0.24323,0.52253 0.26728,0.76576 0.26728,2.81935 0,2.60054 -0.0832,2.97722 -1.02083,4.39906 -1.08159,1.64056 -2.29682,2.63706 -4.21686,3.46331 -0.82588,0.35236 -1.09371,0.52253 -1.11794,0.72876 -0.0462,0.30427 0.91096,5.91809 3.98593,23.55103 4.01017,22.89467 7.33993,41.68208 7.4978,42.16817 0.0462,0.17017 0.15815,0.009 0.42542,-0.66866 0.35236,-0.93574 3.09893,-8.68888 4.22907,-11.96991 0.34034,-1.00871 0.83883,-2.44266 1.10582,-3.19613 0.4615,-1.31242 0.92391,-2.66129 1.92005,-5.52919 0.26728,-0.74172 0.6927,-1.99292 0.96007,-2.75859 0.60762,-1.71344 2.21164,-6.34342 3.75491,-10.81545 0.63166,-1.83496 1.40972,-4.10745 1.73776,-5.0432 0.32831,-0.93565 1.11803,-3.22035 1.74997,-5.07964 0.64368,-1.84707 1.6892,-4.88514 2.33325,-6.74452 0.63166,-1.84707 1.43396,-4.15601 1.76209,-5.1281 0.34033,-0.97227 0.69269,-1.9808 0.7898,-2.23606 0.0971,-0.25525 0.13318,-0.5105 0.0832,-0.55859 -0.0462,-0.0462 -0.53456,-0.37641 -1.06939,-0.72877 -1.88369,-1.25167 -3.45128,-3.09874 -3.90084,-4.58134 -0.26728,-0.87489 -0.24323,-4.3505 0.0277,-5.17684 0.38936,-1.15437 1.40963,-2.63706 2.52757,-3.60915 1.15456,-1.02083 3.0746,-1.78641 4.7516,-1.90793 2.5763,-0.18219 5.40767,1.10582 6.96315,3.17171 1.26387,1.66488 1.60403,2.70994 1.60403,4.86091 0,2.27241 -0.3163,3.28112 -1.49453,4.88515 -1.04525,1.42193 -2.53996,2.46699 -4.39924,3.08672 -0.61964,0.20624 -1.22735,0.48646 -1.33666,0.60761 -0.20624,0.23121 -0.20624,0.48554 0.0462,5.31048 0.26728,5.06743 1.9809,36.03126 2.44267,44.08821 0.13317,2.33335 0.35236,6.27054 0.49848,8.74965 0.1341,2.46689 0.29132,4.59355 0.32832,4.71507 0.0647,0.15814 1.6892,-3.0746 5.49285,-10.87621 16.186684,-33.26074 19.079004,-39.37332 19.079004,-40.30888 0,-0.15815 -0.18219,-0.36439 -0.52253,-0.57155 -0.94786,-0.60761 -1.99292,-1.81073 -2.5763,-3.01384 -1.23955,-2.50334 -1.19091,-4.95802 0.15814,-7.52212 0.58357,-1.11803 1.30022,-1.89581 2.52757,-2.71004 1.70141,-1.13014 1.93225,-1.1909 4.54499,-1.20302 h 2.24818 l 1.03294,0.49849 c 1.20302,0.58357 2.34537,1.40963 2.94078,2.13867 1.5798,1.93225 2.26029,4.76372 1.70132,6.99978 -0.36438,1.40953 -0.91188,2.45478 -1.81073,3.42687 -1.43395,1.55547 -3.19603,2.39392 -5.80877,2.77079 l -1.44598,0.20624 -3.42696,27.40323 c -1.88361,15.06884 -3.49984,27.93796 -3.57281,28.58192 l -0.14613,1.17889 -2.92866,3.56051 c -7.425014,9.04125 -9.114124,11.22866 -9.891914,12.8571 -1.1787,2.46681 -4.84871,10.91274 -5.55352,12.78414 l -0.30335,0.7898 0.71675,1.74988 c 0.38843,0.96006 1.44607,3.48772 2.35749,5.61438 1.74996,4.09525 2.98942,7.23052 2.98942,7.54654 0,0.68067 -5.65081,3.43908 -9.90402,4.82448 -3.86441,1.26369 -8.67668,2.19943 -14.09656,2.73417 -3.92517,0.38843 -43.89391,0.32831 -49.82412,-0.074 -6.62299,-0.44947 -13.06362,-2.09012 -19.50424,-4.94581 -2.62495,-1.15456 -4.13187,-2.09012 -4.13187,-2.53978 0,-0.31629 1.23955,-3.43917 2.98952,-7.54662 0.91096,-2.12657 1.9686,-4.65423 2.35749,-5.6143 l 0.71674,-1.74996 -0.30334,-0.78981 c -0.70472,-1.87149 -4.37482,-10.31733 -5.55352,-12.78423 -0.77779,-1.62835 -2.46699,-3.81576 -9.892,-12.85701 l -2.92858,-3.5606 -0.14612,-1.17879 c -0.074,-0.64369 -1.6892,-13.51327 -3.57281,-28.58202 l -3.42696,-27.40323 -1.44616,-0.20624 c -0.80183,-0.12115 -1.8714,-0.35236 -2.36961,-0.53455 -3.43898,-1.19091 -5.66293,-4.36262 -5.432,-7.76535 0.1341,-1.81064 0.81386,-3.58483 1.88352,-4.89726 0.59559,-0.72877 1.73776,-1.55548 2.94087,-2.13886 l 1.03304,-0.49848 h 2.24798 c 2.00513,0.009 2.32115,0.037 2.88012,0.26727 0.93574,0.37641 2.60053,1.51904 3.23247,2.21165 1.56768,1.74996 2.34546,4.64219 1.85928,6.93892 -0.2793,1.34886 -1.13005,2.9651 -2.04157,3.91305 -0.42542,0.43745 -0.99641,0.93575 -1.2881,1.11794 -0.32832,0.20624 -0.51051,0.4134 -0.51051,0.57154 0,0.93575 2.89232,7.04833 19.079,40.30898 3.80365,7.8017 5.43209,11.03417 5.49286,10.87621 0.037,-0.12115 0.19421,-2.24817 0.32831,-4.71507 0.14612,-2.47901 0.36438,-6.41639 0.49849,-8.74956 0.46149,-8.05695 2.17538,-39.02078 2.44266,-44.0883 0.25525,-4.82439 0.25525,-5.07955 0.0462,-5.31048 -0.10913,-0.12115 -0.71674,-0.40137 -1.33684,-0.60761 -1.85919,-0.61964 -3.354,-1.66488 -4.39906,-3.08663 -1.1787,-1.60412 -1.49471,-2.61274 -1.49471,-4.88524 0,-1.61623 0.17017,-2.50342 0.68067,-3.42696 0.97228,-1.78631 2.1753,-2.9651 3.8523,-3.79144 3.87652,-1.88361 8.45796,-0.42542 10.70604,3.40264 0.71674,1.21523 0.81385,1.70123 0.81385,3.90085 0,2.32105 -0.0962,2.74638 -0.89894,4.03448 -0.66865,1.06939 -1.8714,2.24818 -3.18382,3.12316 -0.53456,0.35236 -1.02083,0.68068 -1.06948,0.72877 -0.0462,0.0462 -0.009,0.30427 0.0832,0.5586 0.098,0.25525 0.44947,1.26387 0.78981,2.23596 0.32831,0.97228 1.13014,3.28121 1.76208,5.12829 0.64368,1.85928 1.68911,4.89744 2.33326,6.74452 0.63166,1.85928 1.42183,4.14398 1.74996,5.07954 0.32832,0.93575 1.10582,3.20825 1.73776,5.0433 1.51895,4.39905 3.1473,9.08989 3.74289,10.77891 0.25525,0.75374 0.6927,2.00513 0.95997,2.7707 0.26728,0.76577 0.70473,2.02955 0.97219,2.79503 0.26727,0.76576 0.70472,2.01734 0.95997,2.75859 0.26728,0.75374 0.76576,2.18741 1.10582,3.19603 1.13015,3.28112 3.87662,11.03426 4.22908,11.97001 0.26727,0.68067 0.3764,0.83882 0.42542,0.66865 0.15814,-0.48553 3.48763,-19.2734 7.49779,-42.16826 3.07461,-17.63275 4.03468,-23.24712 3.98594,-23.55084 -0.0277,-0.20624 -0.29133,-0.37641 -1.11794,-0.72877 -1.92004,-0.82587 -3.13527,-1.82275 -4.21686,-3.46331 -0.93566,-1.42183 -1.02083,-1.79852 -1.02083,-4.39905 0,-2.49131 0.0277,-2.60072 0.97227,-4.08323 1.88352,-2.94087 5.38336,-4.47202 8.62804,-3.75509 z"
     id="path1-8-8"
     style="display:inline;fill:#000000;stroke:none;stroke-width:0.0121522"
     inkscape:label="Queen (alternative, head)" /><path
     d="m -164.09356,704.10215 c -0.56154,0.65501 -2.24608,4.77294 -3.74354,9.07801 -1.49739,4.30495 -2.99478,8.60996 -3.36909,9.54582 -0.37458,0.93591 -10.85611,9.07795 -23.30323,18.1559 -29.01194,21.15068 -27.04669,19.27898 -26.39154,25.08131 0.74869,6.92547 3.83708,17.4072 5.33447,18.24951 1.77816,1.02946 20.21483,2.80762 28.6377,2.80762 h 6.8318 v 4.49217 c 0,2.52685 -3.4627,18.34306 -7.95494,36.12465 -4.39849,17.40714 -7.95488,32.66187 -7.95488,33.87849 0,2.71408 1.96539,3.55632 9.82672,4.49217 10.48173,1.21669 10.48173,1.31024 5.70879,12.63427 -4.6794,11.04327 -9.07802,18.43667 -15.53551,26.11085 -3.08839,3.7434 -6.08317,7.86133 -6.55103,9.17149 -0.56153,1.31024 -0.93598,6.5511 -0.93598,11.69835 0,6.64478 -0.46806,10.20103 -1.49726,12.16641 -0.74876,1.59094 -1.3103,4.49217 -1.12314,6.64464 0.28044,3.46271 0.65502,4.02418 3.08839,4.67933 9.17156,2.43324 52.78316,3.36916 81.14002,1.68455 16.47136,-0.93585 24.051918,-2.15241 25.268478,-4.02424 1.12314,-1.7781 0.8423,-6.17672 -0.56154,-9.35873 -0.7487,-1.68454 -1.49733,-7.39333 -1.77809,-12.91497 -0.46806,-10.94965 -1.216628,-13.00865 -6.925478,-19.55968 -12.07267,-13.66373 -23.8647,-37.43488 -18.71744,-37.43488 2.43331,0 18.06235,-1.96531 19.65329,-2.43324 3.27561,-1.0294 3.93076,-4.30501 4.67939,-23.30316 1.123078,-27.04676 1.029468,-32.1004 -0.74863,-38.37073 -0.93598,-3.08839 -1.96538,-9.63942 -2.33969,-14.50604 -0.7487,-9.45226 -1.77823,-13.10213 -6.45755,-22.27368 -1.59101,-3.18194 -3.46271,-8.23571 -4.21141,-11.3241 -1.31023,-5.61518 -8.04848,-19.74684 -14.41249,-30.22857 -1.96525,-3.27555 -4.86648,-8.70357 -6.45749,-12.16634 -1.59093,-3.3691 -3.64979,-6.64464 -4.67932,-7.11264 -5.05364,-2.6204 -22.74169,-3.93063 -24.51978,-1.68454 z"
     id="path3-3"
     inkscape:label="Knight"
     style="display:inline;stroke-width:0.0935872" /></svg>
